<mxfile host="app.diagrams.net" agent="Mozilla/5.0 (Windows NT 10.0; Win64; x64) AppleWebKit/537.36 (KHTML, like Gecko) Chrome/129.0.0.0 Safari/537.36" version="24.7.16">
  <diagram name="페이지-1" id="ornHel27MPxaN62uwrJq">
    <mxGraphModel dx="2390" dy="809" grid="0" gridSize="10" guides="1" tooltips="1" connect="1" arrows="1" fold="1" page="1" pageScale="1" pageWidth="1169" pageHeight="827" math="0" shadow="0">
      <root>
        <mxCell id="0" />
        <mxCell id="1" parent="0" />
        <mxCell id="zNkNhdcRpNS4lPK-cGLT-1" value="사용자" style="shape=umlActor;verticalLabelPosition=bottom;verticalAlign=top;html=1;outlineConnect=0;" parent="1" vertex="1">
          <mxGeometry x="-537" y="543" width="30" height="60" as="geometry" />
        </mxCell>
        <mxCell id="zNkNhdcRpNS4lPK-cGLT-6" value="" style="whiteSpace=wrap;html=1;aspect=fixed;" parent="1" vertex="1">
          <mxGeometry x="-395" y="384" width="852" height="852" as="geometry" />
        </mxCell>
        <mxCell id="zNkNhdcRpNS4lPK-cGLT-8" style="edgeStyle=none;curved=1;rounded=0;orthogonalLoop=1;jettySize=auto;html=1;entryX=1;entryY=1;entryDx=0;entryDy=0;entryPerimeter=0;fontSize=12;startSize=8;endSize=8;" parent="1" source="zNkNhdcRpNS4lPK-cGLT-2" target="zNkNhdcRpNS4lPK-cGLT-2" edge="1">
          <mxGeometry relative="1" as="geometry" />
        </mxCell>
        <mxCell id="zNkNhdcRpNS4lPK-cGLT-2" value="식당 관리자" style="shape=umlActor;verticalLabelPosition=bottom;verticalAlign=top;html=1;outlineConnect=0;" parent="1" vertex="1">
          <mxGeometry x="-540" y="879" width="30" height="68" as="geometry" />
        </mxCell>
        <mxCell id="zNkNhdcRpNS4lPK-cGLT-4" value="관리자" style="shape=umlActor;verticalLabelPosition=bottom;verticalAlign=top;html=1;outlineConnect=0;" parent="1" vertex="1">
          <mxGeometry x="500" y="1010" width="33" height="76" as="geometry" />
        </mxCell>
        <mxCell id="wiaewfCoUQoDWu5S9Ph1-3" value="메뉴 선택" style="ellipse;whiteSpace=wrap;html=1;" parent="1" vertex="1">
          <mxGeometry x="-304" y="539" width="120" height="29" as="geometry" />
        </mxCell>
        <mxCell id="wiaewfCoUQoDWu5S9Ph1-4" value="결제하기" style="ellipse;whiteSpace=wrap;html=1;" parent="1" vertex="1">
          <mxGeometry x="-304" y="625" width="120" height="29" as="geometry" />
        </mxCell>
        <mxCell id="wiaewfCoUQoDWu5S9Ph1-5" value="회원가입 / 로그인" style="ellipse;whiteSpace=wrap;html=1;" parent="1" vertex="1">
          <mxGeometry x="-300.5" y="502" width="120" height="29" as="geometry" />
        </mxCell>
        <mxCell id="wiaewfCoUQoDWu5S9Ph1-14" value="조리" style="ellipse;whiteSpace=wrap;html=1;" parent="1" vertex="1">
          <mxGeometry x="-307.5" y="995" width="120" height="29" as="geometry" />
        </mxCell>
        <mxCell id="wiaewfCoUQoDWu5S9Ph1-15" value="번호표 검사" style="ellipse;whiteSpace=wrap;html=1;" parent="1" vertex="1">
          <mxGeometry x="-312" y="1037" width="120" height="29" as="geometry" />
        </mxCell>
        <mxCell id="wiaewfCoUQoDWu5S9Ph1-16" value="메뉴 확인" style="ellipse;whiteSpace=wrap;html=1;" parent="1" vertex="1">
          <mxGeometry x="-307.5" y="951" width="120" height="29" as="geometry" />
        </mxCell>
        <mxCell id="wiaewfCoUQoDWu5S9Ph1-17" value="알림" style="ellipse;whiteSpace=wrap;html=1;" parent="1" vertex="1">
          <mxGeometry x="-314" y="1115" width="120" height="29" as="geometry" />
        </mxCell>
        <mxCell id="wiaewfCoUQoDWu5S9Ph1-20" value="알림 확인" style="ellipse;whiteSpace=wrap;html=1;" parent="1" vertex="1">
          <mxGeometry x="-304" y="662" width="120" height="29" as="geometry" />
        </mxCell>
        <mxCell id="wiaewfCoUQoDWu5S9Ph1-33" value="시간 동기화" style="ellipse;whiteSpace=wrap;html=1;" parent="1" vertex="1">
          <mxGeometry x="204" y="1082" width="120" height="29" as="geometry" />
        </mxCell>
        <mxCell id="wiaewfCoUQoDWu5S9Ph1-34" value="번호표 초기화" style="ellipse;whiteSpace=wrap;html=1;" parent="1" vertex="1">
          <mxGeometry x="-37.5" y="1082" width="120" height="29" as="geometry" />
        </mxCell>
        <mxCell id="wiaewfCoUQoDWu5S9Ph1-35" value="회원 관리" style="ellipse;whiteSpace=wrap;html=1;" parent="1" vertex="1">
          <mxGeometry x="206" y="995" width="120" height="29" as="geometry" />
        </mxCell>
        <mxCell id="wiaewfCoUQoDWu5S9Ph1-55" value="회원 정보" style="ellipse;whiteSpace=wrap;html=1;" parent="1" vertex="1">
          <mxGeometry x="185" y="502" width="120" height="29" as="geometry" />
        </mxCell>
        <mxCell id="wiaewfCoUQoDWu5S9Ph1-56" value="번호표" style="ellipse;whiteSpace=wrap;html=1;" parent="1" vertex="1">
          <mxGeometry x="193" y="717" width="120" height="29" as="geometry" />
        </mxCell>
        <mxCell id="wiaewfCoUQoDWu5S9Ph1-57" value="결제 시간" style="ellipse;whiteSpace=wrap;html=1;" parent="1" vertex="1">
          <mxGeometry x="187" y="581" width="120" height="29" as="geometry" />
        </mxCell>
        <mxCell id="wiaewfCoUQoDWu5S9Ph1-58" value="메뉴 목록" style="ellipse;whiteSpace=wrap;html=1;" parent="1" vertex="1">
          <mxGeometry x="187" y="543.25" width="120" height="29" as="geometry" />
        </mxCell>
        <mxCell id="wiaewfCoUQoDWu5S9Ph1-60" value="결제정보" style="ellipse;whiteSpace=wrap;html=1;" parent="1" vertex="1">
          <mxGeometry x="-105" y="631" width="120" height="29" as="geometry" />
        </mxCell>
        <mxCell id="wiaewfCoUQoDWu5S9Ph1-63" value="학생식당 Ticket-Vending" style="text;html=1;align=center;verticalAlign=middle;whiteSpace=wrap;rounded=0;" parent="1" vertex="1">
          <mxGeometry x="-37.5" y="392" width="137" height="30" as="geometry" />
        </mxCell>
        <mxCell id="5F2I87BRX-AB1hQ1D-qz-2" value="" style="endArrow=none;html=1;rounded=0;exitX=0.5;exitY=0.5;exitDx=0;exitDy=0;exitPerimeter=0;entryX=0;entryY=0.5;entryDx=0;entryDy=0;" parent="1" source="zNkNhdcRpNS4lPK-cGLT-1" target="wiaewfCoUQoDWu5S9Ph1-4" edge="1">
          <mxGeometry width="50" height="50" relative="1" as="geometry">
            <mxPoint x="-140" y="805" as="sourcePoint" />
            <mxPoint x="-90" y="755" as="targetPoint" />
          </mxGeometry>
        </mxCell>
        <mxCell id="5F2I87BRX-AB1hQ1D-qz-3" value="" style="endArrow=none;html=1;rounded=0;exitX=0.5;exitY=0.5;exitDx=0;exitDy=0;exitPerimeter=0;entryX=0;entryY=0.5;entryDx=0;entryDy=0;" parent="1" source="zNkNhdcRpNS4lPK-cGLT-1" target="wiaewfCoUQoDWu5S9Ph1-3" edge="1">
          <mxGeometry width="50" height="50" relative="1" as="geometry">
            <mxPoint x="-140" y="805" as="sourcePoint" />
            <mxPoint x="-90" y="755" as="targetPoint" />
          </mxGeometry>
        </mxCell>
        <mxCell id="5F2I87BRX-AB1hQ1D-qz-5" value="" style="endArrow=none;html=1;rounded=0;exitX=0.5;exitY=0.5;exitDx=0;exitDy=0;exitPerimeter=0;entryX=0;entryY=0.5;entryDx=0;entryDy=0;" parent="1" source="zNkNhdcRpNS4lPK-cGLT-1" target="wiaewfCoUQoDWu5S9Ph1-5" edge="1">
          <mxGeometry width="50" height="50" relative="1" as="geometry">
            <mxPoint x="-140" y="805" as="sourcePoint" />
            <mxPoint x="-90" y="755" as="targetPoint" />
          </mxGeometry>
        </mxCell>
        <mxCell id="5F2I87BRX-AB1hQ1D-qz-6" value="" style="endArrow=none;html=1;rounded=0;exitX=0.5;exitY=0.5;exitDx=0;exitDy=0;exitPerimeter=0;entryX=0;entryY=0.5;entryDx=0;entryDy=0;" parent="1" source="zNkNhdcRpNS4lPK-cGLT-1" target="wiaewfCoUQoDWu5S9Ph1-20" edge="1">
          <mxGeometry width="50" height="50" relative="1" as="geometry">
            <mxPoint x="-391" y="534" as="sourcePoint" />
            <mxPoint x="-268" y="678" as="targetPoint" />
          </mxGeometry>
        </mxCell>
        <mxCell id="5F2I87BRX-AB1hQ1D-qz-7" value="" style="endArrow=none;html=1;rounded=0;exitX=0.5;exitY=0.5;exitDx=0;exitDy=0;exitPerimeter=0;entryX=0;entryY=0.5;entryDx=0;entryDy=0;" parent="1" source="zNkNhdcRpNS4lPK-cGLT-2" target="wiaewfCoUQoDWu5S9Ph1-16" edge="1">
          <mxGeometry width="50" height="50" relative="1" as="geometry">
            <mxPoint x="-388" y="762" as="sourcePoint" />
            <mxPoint x="-265" y="767" as="targetPoint" />
          </mxGeometry>
        </mxCell>
        <mxCell id="5F2I87BRX-AB1hQ1D-qz-8" value="" style="endArrow=none;html=1;rounded=0;exitX=0.5;exitY=0.5;exitDx=0;exitDy=0;exitPerimeter=0;entryX=0;entryY=0.5;entryDx=0;entryDy=0;" parent="1" source="zNkNhdcRpNS4lPK-cGLT-2" target="wiaewfCoUQoDWu5S9Ph1-15" edge="1">
          <mxGeometry width="50" height="50" relative="1" as="geometry">
            <mxPoint x="-393" y="811" as="sourcePoint" />
            <mxPoint x="-279" y="777" as="targetPoint" />
          </mxGeometry>
        </mxCell>
        <mxCell id="5F2I87BRX-AB1hQ1D-qz-9" value="" style="endArrow=none;html=1;rounded=0;exitX=0.5;exitY=0.5;exitDx=0;exitDy=0;exitPerimeter=0;entryX=0;entryY=0.5;entryDx=0;entryDy=0;" parent="1" source="zNkNhdcRpNS4lPK-cGLT-2" target="wiaewfCoUQoDWu5S9Ph1-14" edge="1">
          <mxGeometry width="50" height="50" relative="1" as="geometry">
            <mxPoint x="-383" y="821" as="sourcePoint" />
            <mxPoint x="-269" y="787" as="targetPoint" />
          </mxGeometry>
        </mxCell>
        <mxCell id="5F2I87BRX-AB1hQ1D-qz-10" value="" style="endArrow=none;html=1;rounded=0;exitX=0.5;exitY=0.5;exitDx=0;exitDy=0;exitPerimeter=0;entryX=0;entryY=0.5;entryDx=0;entryDy=0;" parent="1" source="zNkNhdcRpNS4lPK-cGLT-2" target="wiaewfCoUQoDWu5S9Ph1-17" edge="1">
          <mxGeometry width="50" height="50" relative="1" as="geometry">
            <mxPoint x="-373" y="831" as="sourcePoint" />
            <mxPoint x="-259" y="797" as="targetPoint" />
          </mxGeometry>
        </mxCell>
        <mxCell id="5F2I87BRX-AB1hQ1D-qz-12" value="" style="endArrow=none;html=1;rounded=0;exitX=1;exitY=0.5;exitDx=0;exitDy=0;entryX=0;entryY=0;entryDx=0;entryDy=32.625;entryPerimeter=0;" parent="1" source="wiaewfCoUQoDWu5S9Ph1-55" target="5F2I87BRX-AB1hQ1D-qz-18" edge="1">
          <mxGeometry width="50" height="50" relative="1" as="geometry">
            <mxPoint x="124" y="591" as="sourcePoint" />
            <mxPoint x="247" y="596" as="targetPoint" />
          </mxGeometry>
        </mxCell>
        <mxCell id="5F2I87BRX-AB1hQ1D-qz-13" value="" style="endArrow=none;html=1;rounded=0;exitX=1;exitY=0.5;exitDx=0;exitDy=0;entryX=0;entryY=0;entryDx=0;entryDy=32.625;entryPerimeter=0;" parent="1" source="wiaewfCoUQoDWu5S9Ph1-58" target="T0LaY_0Klr0CLxTFd-mG-3" edge="1">
          <mxGeometry width="50" height="50" relative="1" as="geometry">
            <mxPoint x="170" y="737" as="sourcePoint" />
            <mxPoint x="259" y="682" as="targetPoint" />
          </mxGeometry>
        </mxCell>
        <mxCell id="5F2I87BRX-AB1hQ1D-qz-14" value="" style="endArrow=none;html=1;rounded=0;exitX=1;exitY=0.5;exitDx=0;exitDy=0;entryX=0;entryY=0;entryDx=0;entryDy=32.625;entryPerimeter=0;" parent="1" source="wiaewfCoUQoDWu5S9Ph1-56" target="T0LaY_0Klr0CLxTFd-mG-3" edge="1">
          <mxGeometry width="50" height="50" relative="1" as="geometry">
            <mxPoint x="159" y="633" as="sourcePoint" />
            <mxPoint x="356" y="738" as="targetPoint" />
            <Array as="points" />
          </mxGeometry>
        </mxCell>
        <mxCell id="5F2I87BRX-AB1hQ1D-qz-15" value="" style="endArrow=none;html=1;rounded=0;exitX=1;exitY=0.5;exitDx=0;exitDy=0;entryX=0;entryY=0;entryDx=0;entryDy=32.625;entryPerimeter=0;" parent="1" source="wiaewfCoUQoDWu5S9Ph1-57" target="5F2I87BRX-AB1hQ1D-qz-18" edge="1">
          <mxGeometry width="50" height="50" relative="1" as="geometry">
            <mxPoint x="140" y="647" as="sourcePoint" />
            <mxPoint x="337" y="752" as="targetPoint" />
          </mxGeometry>
        </mxCell>
        <mxCell id="5F2I87BRX-AB1hQ1D-qz-18" value="결제DB" style="shape=cylinder3;whiteSpace=wrap;html=1;boundedLbl=1;backgroundOutline=1;size=15;" parent="1" vertex="1">
          <mxGeometry x="482" y="531" width="49" height="53.5" as="geometry" />
        </mxCell>
        <mxCell id="5F2I87BRX-AB1hQ1D-qz-33" value="" style="endArrow=none;html=1;rounded=0;exitX=0.5;exitY=0.5;exitDx=0;exitDy=0;exitPerimeter=0;entryX=1;entryY=0.5;entryDx=0;entryDy=0;curved=0;" parent="1" source="zNkNhdcRpNS4lPK-cGLT-4" target="wiaewfCoUQoDWu5S9Ph1-35" edge="1">
          <mxGeometry width="50" height="50" relative="1" as="geometry">
            <mxPoint x="35" y="1137.5" as="sourcePoint" />
            <mxPoint x="92" y="791" as="targetPoint" />
          </mxGeometry>
        </mxCell>
        <mxCell id="5F2I87BRX-AB1hQ1D-qz-34" value="" style="endArrow=none;html=1;rounded=0;exitX=0.5;exitY=0.5;exitDx=0;exitDy=0;exitPerimeter=0;entryX=1;entryY=0.5;entryDx=0;entryDy=0;" parent="1" source="zNkNhdcRpNS4lPK-cGLT-4" target="wiaewfCoUQoDWu5S9Ph1-33" edge="1">
          <mxGeometry width="50" height="50" relative="1" as="geometry">
            <mxPoint x="121" y="1132" as="sourcePoint" />
            <mxPoint x="49" y="811" as="targetPoint" />
          </mxGeometry>
        </mxCell>
        <mxCell id="snhe3Xh0oELJzNI7V56g-15" value="" style="endArrow=open;html=1;rounded=0;dashed=1;dashPattern=1 2;endFill=0;exitX=1;exitY=0.5;exitDx=0;exitDy=0;entryX=0;entryY=0.5;entryDx=0;entryDy=0;" parent="1" source="wiaewfCoUQoDWu5S9Ph1-5" target="wiaewfCoUQoDWu5S9Ph1-55" edge="1">
          <mxGeometry relative="1" as="geometry">
            <mxPoint x="-180" y="505" as="sourcePoint" />
            <mxPoint x="-94" y="434" as="targetPoint" />
          </mxGeometry>
        </mxCell>
        <mxCell id="snhe3Xh0oELJzNI7V56g-16" value="&amp;lt;&amp;lt;include&amp;gt;&amp;gt;" style="edgeLabel;html=1;align=center;verticalAlign=middle;resizable=0;points=[];" parent="snhe3Xh0oELJzNI7V56g-15" vertex="1" connectable="0">
          <mxGeometry x="-0.18" y="1" relative="1" as="geometry">
            <mxPoint as="offset" />
          </mxGeometry>
        </mxCell>
        <mxCell id="snhe3Xh0oELJzNI7V56g-27" value="" style="endArrow=open;html=1;rounded=0;dashed=1;dashPattern=1 2;endFill=0;exitX=1;exitY=0.5;exitDx=0;exitDy=0;entryX=0;entryY=0.5;entryDx=0;entryDy=0;" parent="1" source="wiaewfCoUQoDWu5S9Ph1-3" target="wiaewfCoUQoDWu5S9Ph1-58" edge="1">
          <mxGeometry relative="1" as="geometry">
            <mxPoint x="-148" y="539" as="sourcePoint" />
            <mxPoint x="-60" y="501" as="targetPoint" />
            <Array as="points" />
          </mxGeometry>
        </mxCell>
        <mxCell id="snhe3Xh0oELJzNI7V56g-28" value="&amp;lt;&amp;lt;include&amp;gt;&amp;gt;" style="edgeLabel;html=1;align=center;verticalAlign=middle;resizable=0;points=[];" parent="snhe3Xh0oELJzNI7V56g-27" vertex="1" connectable="0">
          <mxGeometry x="-0.18" y="1" relative="1" as="geometry">
            <mxPoint y="1" as="offset" />
          </mxGeometry>
        </mxCell>
        <mxCell id="T0LaY_0Klr0CLxTFd-mG-1" value="" style="endArrow=open;html=1;rounded=0;dashed=1;dashPattern=1 2;endFill=0;exitX=1;exitY=0.5;exitDx=0;exitDy=0;entryX=0;entryY=0.5;entryDx=0;entryDy=0;" parent="1" source="wiaewfCoUQoDWu5S9Ph1-4" target="wiaewfCoUQoDWu5S9Ph1-60" edge="1">
          <mxGeometry relative="1" as="geometry">
            <mxPoint x="-178" y="641" as="sourcePoint" />
            <mxPoint x="99" y="575" as="targetPoint" />
          </mxGeometry>
        </mxCell>
        <mxCell id="T0LaY_0Klr0CLxTFd-mG-2" value="&amp;lt;&amp;lt;include&amp;gt;&amp;gt;" style="edgeLabel;html=1;align=center;verticalAlign=middle;resizable=0;points=[];fontSize=10;" parent="T0LaY_0Klr0CLxTFd-mG-1" vertex="1" connectable="0">
          <mxGeometry x="-0.18" y="1" relative="1" as="geometry">
            <mxPoint as="offset" />
          </mxGeometry>
        </mxCell>
        <mxCell id="T0LaY_0Klr0CLxTFd-mG-3" value="번호DB" style="shape=cylinder3;whiteSpace=wrap;html=1;boundedLbl=1;backgroundOutline=1;size=15;" parent="1" vertex="1">
          <mxGeometry x="482" y="694.75" width="49" height="53.5" as="geometry" />
        </mxCell>
        <mxCell id="T0LaY_0Klr0CLxTFd-mG-5" value="통합DB" style="shape=cylinder3;whiteSpace=wrap;html=1;boundedLbl=1;backgroundOutline=1;size=15;" parent="1" vertex="1">
          <mxGeometry x="593" y="653" width="60" height="54" as="geometry" />
        </mxCell>
        <mxCell id="qS_i0Z3g07YtAvrLvoFF-4" style="edgeStyle=orthogonalEdgeStyle;rounded=0;orthogonalLoop=1;jettySize=auto;html=1;exitX=0.5;exitY=1;exitDx=0;exitDy=0;" parent="1" source="wiaewfCoUQoDWu5S9Ph1-33" target="wiaewfCoUQoDWu5S9Ph1-33" edge="1">
          <mxGeometry relative="1" as="geometry" />
        </mxCell>
        <mxCell id="qS_i0Z3g07YtAvrLvoFF-7" value="메뉴 등록&amp;nbsp;" style="ellipse;whiteSpace=wrap;html=1;" parent="1" vertex="1">
          <mxGeometry x="-110" y="874" width="120" height="29" as="geometry" />
        </mxCell>
        <mxCell id="qS_i0Z3g07YtAvrLvoFF-15" value="메뉴 삭제" style="ellipse;whiteSpace=wrap;html=1;" parent="1" vertex="1">
          <mxGeometry x="-110" y="918" width="120" height="29" as="geometry" />
        </mxCell>
        <mxCell id="T0LaY_0Klr0CLxTFd-mG-8" value="전광판 / 알림톡" style="rounded=0;whiteSpace=wrap;html=1;" parent="1" vertex="1">
          <mxGeometry x="-590" y="771" width="128" height="44" as="geometry" />
        </mxCell>
        <mxCell id="qS_i0Z3g07YtAvrLvoFF-26" style="edgeStyle=orthogonalEdgeStyle;rounded=0;orthogonalLoop=1;jettySize=auto;html=1;exitX=0.5;exitY=1;exitDx=0;exitDy=0;" parent="1" source="wiaewfCoUQoDWu5S9Ph1-55" target="wiaewfCoUQoDWu5S9Ph1-55" edge="1">
          <mxGeometry relative="1" as="geometry" />
        </mxCell>
        <mxCell id="T0LaY_0Klr0CLxTFd-mG-9" value="픽업" style="ellipse;whiteSpace=wrap;html=1;" parent="1" vertex="1">
          <mxGeometry x="-304" y="707" width="120" height="29" as="geometry" />
        </mxCell>
        <mxCell id="qS_i0Z3g07YtAvrLvoFF-27" value="리뷰 작성&amp;nbsp;" style="ellipse;whiteSpace=wrap;html=1;" parent="1" vertex="1">
          <mxGeometry x="-686" y="660" width="120" height="29" as="geometry" />
        </mxCell>
        <mxCell id="T0LaY_0Klr0CLxTFd-mG-10" value="" style="endArrow=none;html=1;rounded=0;exitX=0.5;exitY=0.5;exitDx=0;exitDy=0;exitPerimeter=0;entryX=0;entryY=0.5;entryDx=0;entryDy=0;" parent="1" source="zNkNhdcRpNS4lPK-cGLT-1" target="T0LaY_0Klr0CLxTFd-mG-9" edge="1">
          <mxGeometry width="50" height="50" relative="1" as="geometry">
            <mxPoint x="-54" y="753" as="sourcePoint" />
            <mxPoint x="-4" y="703" as="targetPoint" />
          </mxGeometry>
        </mxCell>
        <mxCell id="T0LaY_0Klr0CLxTFd-mG-26" value="알림판" style="whiteSpace=wrap;html=1;aspect=fixed;" parent="1" vertex="1">
          <mxGeometry x="477" y="862" width="71" height="71" as="geometry" />
        </mxCell>
        <mxCell id="nyIHkUbPLQZlrNqs4gsP-12" value="" style="endArrow=classic;html=1;rounded=0;entryX=1;entryY=0.5;entryDx=0;entryDy=0;entryPerimeter=0;exitX=0;exitY=0.5;exitDx=0;exitDy=0;exitPerimeter=0;" parent="1" source="T0LaY_0Klr0CLxTFd-mG-5" target="5F2I87BRX-AB1hQ1D-qz-18" edge="1">
          <mxGeometry width="50" height="50" relative="1" as="geometry">
            <mxPoint x="-14" y="812" as="sourcePoint" />
            <mxPoint x="36" y="762" as="targetPoint" />
          </mxGeometry>
        </mxCell>
        <mxCell id="nyIHkUbPLQZlrNqs4gsP-13" value="" style="endArrow=classic;html=1;rounded=0;exitX=0;exitY=0;exitDx=0;exitDy=33;exitPerimeter=0;entryX=1;entryY=0.5;entryDx=0;entryDy=0;entryPerimeter=0;" parent="1" source="T0LaY_0Klr0CLxTFd-mG-5" target="T0LaY_0Klr0CLxTFd-mG-3" edge="1">
          <mxGeometry width="50" height="50" relative="1" as="geometry">
            <mxPoint x="-14" y="812" as="sourcePoint" />
            <mxPoint x="36" y="762" as="targetPoint" />
          </mxGeometry>
        </mxCell>
        <mxCell id="b9mgm2ZIOSO_23rySLAU-1" value="" style="endArrow=none;html=1;rounded=0;entryX=1;entryY=0.5;entryDx=0;entryDy=0;exitX=1;exitY=0.5;exitDx=0;exitDy=0;" parent="1" source="T0LaY_0Klr0CLxTFd-mG-8" target="wiaewfCoUQoDWu5S9Ph1-20" edge="1">
          <mxGeometry width="50" height="50" relative="1" as="geometry">
            <mxPoint x="-64" y="851" as="sourcePoint" />
            <mxPoint x="-14" y="801" as="targetPoint" />
            <Array as="points">
              <mxPoint x="-47" y="790" />
            </Array>
          </mxGeometry>
        </mxCell>
        <mxCell id="b9mgm2ZIOSO_23rySLAU-2" value="" style="endArrow=none;html=1;rounded=0;exitX=1;exitY=0.5;exitDx=0;exitDy=0;entryX=0;entryY=0.5;entryDx=0;entryDy=0;" parent="1" source="wiaewfCoUQoDWu5S9Ph1-15" target="T0LaY_0Klr0CLxTFd-mG-26" edge="1">
          <mxGeometry width="50" height="50" relative="1" as="geometry">
            <mxPoint x="-64" y="958" as="sourcePoint" />
            <mxPoint x="-14" y="908" as="targetPoint" />
          </mxGeometry>
        </mxCell>
        <mxCell id="b9mgm2ZIOSO_23rySLAU-3" value="" style="endArrow=none;html=1;rounded=0;exitX=1;exitY=0.5;exitDx=0;exitDy=0;" parent="1" source="wiaewfCoUQoDWu5S9Ph1-17" target="T0LaY_0Klr0CLxTFd-mG-26" edge="1">
          <mxGeometry width="50" height="50" relative="1" as="geometry">
            <mxPoint x="-64" y="958" as="sourcePoint" />
            <mxPoint x="-14" y="908" as="targetPoint" />
          </mxGeometry>
        </mxCell>
        <mxCell id="b9mgm2ZIOSO_23rySLAU-4" value="" style="endArrow=open;html=1;rounded=0;dashed=1;dashPattern=1 2;endFill=0;exitX=0;exitY=0.5;exitDx=0;exitDy=0;entryX=1;entryY=0.5;entryDx=0;entryDy=0;" parent="1" source="wiaewfCoUQoDWu5S9Ph1-33" target="wiaewfCoUQoDWu5S9Ph1-34" edge="1">
          <mxGeometry relative="1" as="geometry">
            <mxPoint x="-182" y="887" as="sourcePoint" />
            <mxPoint x="-108" y="849" as="targetPoint" />
            <Array as="points" />
          </mxGeometry>
        </mxCell>
        <mxCell id="b9mgm2ZIOSO_23rySLAU-5" value="&amp;lt;&amp;lt;extend&amp;gt;&amp;gt;" style="edgeLabel;html=1;align=center;verticalAlign=middle;resizable=0;points=[];" parent="b9mgm2ZIOSO_23rySLAU-4" connectable="0" vertex="1">
          <mxGeometry x="-0.18" y="1" relative="1" as="geometry">
            <mxPoint as="offset" />
          </mxGeometry>
        </mxCell>
        <mxCell id="b9mgm2ZIOSO_23rySLAU-8" value="장바구니 추가 및 확인" style="ellipse;whiteSpace=wrap;html=1;" parent="1" vertex="1">
          <mxGeometry x="-307.5" y="581" width="127" height="35.5" as="geometry" />
        </mxCell>
        <mxCell id="b9mgm2ZIOSO_23rySLAU-9" value="" style="endArrow=none;html=1;rounded=0;exitX=0.5;exitY=0.5;exitDx=0;exitDy=0;exitPerimeter=0;entryX=0;entryY=0.5;entryDx=0;entryDy=0;" parent="1" source="zNkNhdcRpNS4lPK-cGLT-1" target="b9mgm2ZIOSO_23rySLAU-8" edge="1">
          <mxGeometry width="50" height="50" relative="1" as="geometry">
            <mxPoint x="-512" y="583" as="sourcePoint" />
            <mxPoint x="-294" y="580" as="targetPoint" />
          </mxGeometry>
        </mxCell>
        <mxCell id="R7gZcFMT6ZPrqW-Vmpx2-5" value="" style="endArrow=open;html=1;rounded=0;fontSize=12;startSize=8;endSize=8;curved=1;dashed=1;dashPattern=1 1;endFill=0;" edge="1" parent="1" source="R7gZcFMT6ZPrqW-Vmpx2-12" target="wiaewfCoUQoDWu5S9Ph1-60">
          <mxGeometry relative="1" as="geometry">
            <mxPoint x="58" y="786" as="sourcePoint" />
            <mxPoint x="158" y="786" as="targetPoint" />
            <Array as="points" />
          </mxGeometry>
        </mxCell>
        <mxCell id="R7gZcFMT6ZPrqW-Vmpx2-6" value="&amp;lt;&amp;lt;extend&amp;gt;&amp;gt;" style="edgeLabel;resizable=0;html=1;fontSize=10;;align=center;verticalAlign=middle;" connectable="0" vertex="1" parent="R7gZcFMT6ZPrqW-Vmpx2-5">
          <mxGeometry relative="1" as="geometry" />
        </mxCell>
        <mxCell id="R7gZcFMT6ZPrqW-Vmpx2-12" value="계좌이체" style="ellipse;whiteSpace=wrap;html=1;" vertex="1" parent="1">
          <mxGeometry x="187" y="660" width="120" height="29" as="geometry" />
        </mxCell>
        <mxCell id="R7gZcFMT6ZPrqW-Vmpx2-14" value="" style="endArrow=open;html=1;rounded=0;fontSize=12;startSize=8;endSize=8;curved=1;dashed=1;dashPattern=1 1;endFill=0;" edge="1" parent="1" source="R7gZcFMT6ZPrqW-Vmpx2-16" target="wiaewfCoUQoDWu5S9Ph1-60">
          <mxGeometry relative="1" as="geometry">
            <mxPoint x="68" y="796" as="sourcePoint" />
            <mxPoint x="-1" y="662" as="targetPoint" />
            <Array as="points" />
          </mxGeometry>
        </mxCell>
        <mxCell id="R7gZcFMT6ZPrqW-Vmpx2-15" value="&amp;lt;&amp;lt;extend&amp;gt;&amp;gt;" style="edgeLabel;resizable=0;html=1;fontSize=10;;align=center;verticalAlign=middle;" connectable="0" vertex="1" parent="R7gZcFMT6ZPrqW-Vmpx2-14">
          <mxGeometry relative="1" as="geometry" />
        </mxCell>
        <mxCell id="R7gZcFMT6ZPrqW-Vmpx2-16" value="카드 결제" style="ellipse;whiteSpace=wrap;html=1;" vertex="1" parent="1">
          <mxGeometry x="187" y="620.5" width="120" height="29" as="geometry" />
        </mxCell>
        <mxCell id="R7gZcFMT6ZPrqW-Vmpx2-17" style="edgeStyle=none;curved=1;rounded=0;orthogonalLoop=1;jettySize=auto;html=1;exitX=0.5;exitY=1;exitDx=0;exitDy=0;fontSize=12;startSize=8;endSize=8;" edge="1" parent="1" source="R7gZcFMT6ZPrqW-Vmpx2-16" target="R7gZcFMT6ZPrqW-Vmpx2-16">
          <mxGeometry relative="1" as="geometry" />
        </mxCell>
        <mxCell id="R7gZcFMT6ZPrqW-Vmpx2-18" value="" style="endArrow=none;html=1;rounded=0;fontSize=12;startSize=8;endSize=8;curved=1;" edge="1" parent="1" source="R7gZcFMT6ZPrqW-Vmpx2-12" target="5F2I87BRX-AB1hQ1D-qz-18">
          <mxGeometry width="50" height="50" relative="1" as="geometry">
            <mxPoint x="25" y="804" as="sourcePoint" />
            <mxPoint x="75" y="754" as="targetPoint" />
          </mxGeometry>
        </mxCell>
        <mxCell id="R7gZcFMT6ZPrqW-Vmpx2-19" value="" style="endArrow=none;html=1;rounded=0;fontSize=12;startSize=8;endSize=8;curved=1;" edge="1" parent="1" source="R7gZcFMT6ZPrqW-Vmpx2-16" target="5F2I87BRX-AB1hQ1D-qz-18">
          <mxGeometry width="50" height="50" relative="1" as="geometry">
            <mxPoint x="25" y="804" as="sourcePoint" />
            <mxPoint x="75" y="754" as="targetPoint" />
          </mxGeometry>
        </mxCell>
        <mxCell id="R7gZcFMT6ZPrqW-Vmpx2-20" value="메뉴 관리" style="ellipse;whiteSpace=wrap;html=1;" vertex="1" parent="1">
          <mxGeometry x="-304" y="903" width="120" height="29" as="geometry" />
        </mxCell>
        <mxCell id="R7gZcFMT6ZPrqW-Vmpx2-21" value="" style="endArrow=none;html=1;rounded=0;fontSize=12;startSize=8;endSize=8;curved=1;" edge="1" parent="1" source="zNkNhdcRpNS4lPK-cGLT-2" target="R7gZcFMT6ZPrqW-Vmpx2-20">
          <mxGeometry width="50" height="50" relative="1" as="geometry">
            <mxPoint x="-118" y="904" as="sourcePoint" />
            <mxPoint x="-68" y="854" as="targetPoint" />
          </mxGeometry>
        </mxCell>
        <mxCell id="R7gZcFMT6ZPrqW-Vmpx2-22" value="" style="endArrow=open;html=1;rounded=0;fontSize=12;startSize=8;endSize=8;curved=1;dashed=1;dashPattern=1 1;endFill=0;entryX=0;entryY=0.5;entryDx=0;entryDy=0;" edge="1" parent="1" source="R7gZcFMT6ZPrqW-Vmpx2-20" target="qS_i0Z3g07YtAvrLvoFF-7">
          <mxGeometry relative="1" as="geometry">
            <mxPoint x="201" y="679" as="sourcePoint" />
            <mxPoint x="20" y="661" as="targetPoint" />
            <Array as="points" />
          </mxGeometry>
        </mxCell>
        <mxCell id="R7gZcFMT6ZPrqW-Vmpx2-23" value="&amp;lt;&amp;lt;extend&amp;gt;&amp;gt;" style="edgeLabel;resizable=0;html=1;fontSize=10;;align=center;verticalAlign=middle;" connectable="0" vertex="1" parent="R7gZcFMT6ZPrqW-Vmpx2-22">
          <mxGeometry relative="1" as="geometry" />
        </mxCell>
        <mxCell id="R7gZcFMT6ZPrqW-Vmpx2-24" value="" style="endArrow=open;html=1;rounded=0;fontSize=12;startSize=8;endSize=8;curved=1;dashed=1;dashPattern=1 1;endFill=0;entryX=0;entryY=0.5;entryDx=0;entryDy=0;" edge="1" parent="1" source="R7gZcFMT6ZPrqW-Vmpx2-20" target="qS_i0Z3g07YtAvrLvoFF-15">
          <mxGeometry relative="1" as="geometry">
            <mxPoint x="-204" y="915" as="sourcePoint" />
            <mxPoint x="-78" y="861" as="targetPoint" />
            <Array as="points" />
          </mxGeometry>
        </mxCell>
        <mxCell id="R7gZcFMT6ZPrqW-Vmpx2-25" value="&amp;lt;&amp;lt;extend&amp;gt;&amp;gt;" style="edgeLabel;resizable=0;html=1;fontSize=10;;align=center;verticalAlign=middle;" connectable="0" vertex="1" parent="R7gZcFMT6ZPrqW-Vmpx2-24">
          <mxGeometry relative="1" as="geometry" />
        </mxCell>
        <mxCell id="R7gZcFMT6ZPrqW-Vmpx2-26" style="edgeStyle=none;curved=1;rounded=0;orthogonalLoop=1;jettySize=auto;html=1;exitX=0.5;exitY=1;exitDx=0;exitDy=0;fontSize=12;startSize=8;endSize=8;" edge="1" parent="1" source="qS_i0Z3g07YtAvrLvoFF-7" target="qS_i0Z3g07YtAvrLvoFF-7">
          <mxGeometry relative="1" as="geometry" />
        </mxCell>
      </root>
    </mxGraphModel>
  </diagram>
</mxfile>
